# xmcd
#
# Track frame offsets:
#	150
#	16220
#	27857
#	39057
#	57077
#	76977
#	88405
#	103420
#	112812
#	127992
#
# Disc length: 1993 seconds
# Revision: 5
# Processed by: cddbd v1.5.2PL0 Copyright (c) Steve Scherf et al.
# Submitted via: dBpowerAMP V12.0
#
DISCID=7007c70a
DTITLE=Willie Nelson - Yours Always
DYEAR=1991
DGENRE=Country
TTITLE0=Always On My Mind
TTITLE1=I Never Go Around Mirrors
TTITLE2=Why Are You Picking On Me
TTITLE3=Help Me Make It Through The Night
TTITLE4=Angel Flying Too Close To The Ground
TTITLE5=Mona Lisa
TTITLE6=I'm Not Trying To Forget You
TTITLE7=If You've Got The Money I've Got The Time
TTITLE8=It's Not Supposed To Be That Way
TTITLE9=City Of New Orleans
EXTD=
EXTT0=
EXTT1=
EXTT2=
EXTT3=
EXTT4=
EXTT5=
EXTT6=
EXTT7=
EXTT8=
EXTT9=
PLAYORDER=
